<?xml version="1.0" encoding="UTF-8"?>
<!DOCTYPE svg PUBLIC "-//W3C//DTD SVG 1.1//EN" "http://www.w3.org/Graphics/SVG/1.1/DTD/svg11.dtd">
<!-- Creator: CorelDRAW 2021 (64-Bit) -->
<svg xmlns="http://www.w3.org/2000/svg" xml:space="preserve" width="210mm" height="297mm" version="1.1" style="shape-rendering:geometricPrecision; text-rendering:geometricPrecision; image-rendering:optimizeQuality; fill-rule:evenodd; clip-rule:evenodd"
viewBox="0 0 21000 29700"
 xmlns:xlink="http://www.w3.org/1999/xlink"
 xmlns:xodm="http://www.corel.com/coreldraw/odm/2003">
 <defs>
  <style type="text/css">
   <![CDATA[
    .fil0 {fill:#B2B3B3;fill-rule:nonzero}
   ]]>
  </style>
 </defs>
 <g id="Layer_x0020_1">
  <metadata id="CorelCorpID_0Corel-Layer"/>
  <g id="cancel-svgrepo-com.svg">
   <path class="fil0" d="M3555.79 20341.81c-230.08,0 -417.28,187.19 -417.28,417.27 0,230.08 187.2,417.28 417.28,417.28 230.08,0 417.27,-187.2 417.27,-417.28 0,-230.08 -187.19,-417.27 -417.27,-417.27zm167.28 510.79c20.37,20.36 20.37,53.39 0,73.76 -10.18,10.18 -23.54,15.28 -36.88,15.28 -13.35,0 -26.71,-5.1 -36.88,-15.28l-93.52 -93.52 -93.52 93.52c-10.17,10.18 -23.53,15.28 -36.88,15.28 -13.34,0 -26.7,-5.1 -36.88,-15.28 -20.37,-20.37 -20.37,-53.4 0,-73.76l93.52 -93.52 -93.52 -93.52c-20.37,-20.36 -20.37,-53.39 0,-73.76 20.35,-20.37 53.41,-20.37 73.76,0l93.52 93.52 93.52 -93.52c20.35,-20.37 53.41,-20.37 73.76,0 20.37,20.37 20.37,53.4 0,73.76l-93.52 93.52 93.52 93.52z"/>
  </g>
 </g>
</svg>
